<svg xmlns="http://www.w3.org/2000/svg" viewBox="0 0 240 160">
<ellipse cx="120" cy="150" rx="70" ry="5" fill="#1A1530" opacity="0.07"/><path d="M28 84 Q30 70 52 68 L168 68 Q198 70 216 84 Q198 100 168 102 L52 102 Q30 100 28 84 Z" fill="#4A8FD8"/><path d="M196 72 Q212 60 226 58 Q222 72 212 80 Z" fill="#FF6B4A"/><path d="M96 70 L70 36 Q68 30 76 30 L96 32 L122 68 Z" fill="#FF6B4A"/><path d="M100 100 L84 124 Q82 130 90 130 L106 126 L124 102 Z" fill="#C84F3E"/><circle cx="78" cy="80" r="6" fill="#DFEEFB"/><circle cx="102" cy="80" r="6" fill="#DFEEFB"/><circle cx="126" cy="80" r="6" fill="#DFEEFB"/><circle cx="150" cy="80" r="6" fill="#DFEEFB"/><path d="M210 86 Q200 94 186 96" fill="none" stroke="#2F6BAE" stroke-width="4" stroke-linecap="round"/>
</svg>
