<svg xmlns="http://www.w3.org/2000/svg" viewBox="0 0 240 160">
<ellipse cx="120" cy="146" rx="85" ry="7" fill="#1A1530" opacity="0.08"/><rect x="98" y="44" width="14" height="10" rx="3" fill="#FF6B4A"/><path d="M36 64 Q36 54 48 54 L150 54 Q160 54 160 64 L160 128 L36 128 Z" fill="#FFFCF5"/><path d="M160 76 L186 76 Q204 80 208 104 L208 118 Q208 128 198 128 L160 128 Z" fill="#FFFCF5"/><rect x="166" y="84" width="22" height="16" rx="5" fill="#DFEEFB"/><rect x="36" y="108" width="172" height="9" fill="#FF6B4A"/><path d="M92 68 L104 68 L104 78 L114 78 L114 90 L104 90 L104 100 L92 100 L92 90 L82 90 L82 78 L92 78 Z" fill="#FF6B4A"/><circle cx="202" cy="112" r="4" fill="#FFB627"/><circle cx="72" cy="130" r="15" fill="#2B2440"/><circle cx="72" cy="130" r="7" fill="#FFB627"/><circle cx="178" cy="130" r="15" fill="#2B2440"/><circle cx="178" cy="130" r="7" fill="#FFB627"/>
</svg>
