<svg xmlns="http://www.w3.org/2000/svg" viewBox="0 0 240 160">
<path d="M20 132 Q35 122 50 132 T80 132 T110 132 T140 132 T170 132 T200 132 T230 132 L230 156 L20 156 Z" fill="#9ECBF2"/><path d="M20 132 Q35 122 50 132 T80 132 T110 132 T140 132 T170 132 T200 132 T230 132" fill="none" stroke="#2F6BAE" stroke-width="3" stroke-linecap="round"/><path d="M44 108 L196 108 Q186 138 156 138 L84 138 Q54 138 44 108 Z" fill="#FF6B4A"/><path d="M44 108 L196 108 L192 118 L48 118 Z" fill="#C84F3E"/><rect x="96" y="76" width="48" height="32" rx="8" fill="#FFF4E0"/><rect x="106" y="84" width="13" height="12" rx="4" fill="#4A8FD8"/><rect x="124" y="84" width="13" height="12" rx="4" fill="#4A8FD8"/><rect x="138" y="56" width="6" height="22" rx="3" fill="#2B2440"/><path d="M144 56 L168 64 L144 72 Z" fill="#FFB627"/>
</svg>
