<svg xmlns="http://www.w3.org/2000/svg" viewBox="0 0 240 160">
<ellipse cx="120" cy="146" rx="85" ry="7" fill="#1A1530" opacity="0.08"/><path d="M92 50 Q132 34 162 52 Q186 68 178 96 L100 96 Q84 68 92 50 Z" fill="#4A8FD8"/><path d="M104 48 L168 92 M94 64 L160 98 M120 42 L178 78" stroke="#2F6BAE" stroke-width="6" stroke-linecap="round"/><rect x="86" y="92" width="100" height="22" rx="8" fill="#2F6BAE"/><path d="M28 80 L62 80 Q78 82 80 100 L80 114 Q80 124 70 124 L28 124 Z" fill="#FF6B4A"/><rect x="36" y="88" width="20" height="16" rx="5" fill="#DFEEFB"/><circle cx="52" cy="128" r="14" fill="#2B2440"/><circle cx="52" cy="128" r="6" fill="#FFB627"/><circle cx="112" cy="128" r="14" fill="#2B2440"/><circle cx="112" cy="128" r="6" fill="#FFB627"/><circle cx="160" cy="128" r="14" fill="#2B2440"/><circle cx="160" cy="128" r="6" fill="#FFB627"/>
</svg>
