<svg xmlns="http://www.w3.org/2000/svg" viewBox="0 0 240 160">
<ellipse cx="120" cy="146" rx="85" ry="7" fill="#1A1530" opacity="0.08"/><path d="M70 96 L170 28 L182 38 L92 102 Z" fill="#FFB627"/><path d="M76 96 L170 34 M92 86 L156 40 M108 76 L142 52" stroke="#D89414" stroke-width="4"/><line x1="176" y1="34" x2="176" y2="84" stroke="#2B2440" stroke-width="4"/><path d="M168 84 L184 84 L176 98 Z" fill="#2B2440"/><path d="M176 98 Q166 102 170 112 Q180 116 184 108 Q184 100 176 98 Z" fill="#FF6B4A"/><rect x="46" y="92" width="64" height="30" rx="8" fill="#FFB627"/><rect x="54" y="98" width="22" height="16" rx="5" fill="#DFEEFB"/><rect x="38" y="118" width="84" height="20" rx="10" fill="#2B2440"/><circle cx="54" cy="128" r="6" fill="#FFB627"/><circle cx="80" cy="128" r="6" fill="#FFB627"/><circle cx="106" cy="128" r="6" fill="#FFB627"/>
</svg>
