<svg xmlns="http://www.w3.org/2000/svg" viewBox="0 0 240 160">
<ellipse cx="120" cy="146" rx="85" ry="7" fill="#1A1530" opacity="0.08"/><path d="M130 70 L176 44 Q184 40 188 48 L192 56 Q194 64 186 66 L146 88 Z" fill="#D89414"/><path d="M186 60 L210 88 Q214 94 208 98 L196 104 Q190 106 188 98 L176 72 Z" fill="#D89414"/><path d="M196 100 Q216 104 214 122 L190 122 Q186 108 196 100 Z" fill="#2B2440"/><rect x="74" y="58" width="60" height="44" rx="10" fill="#FFB627"/><rect x="84" y="66" width="28" height="20" rx="6" fill="#DFEEFB"/><rect x="58" y="100" width="100" height="14" rx="7" fill="#D89414"/><rect x="48" y="112" width="116" height="26" rx="13" fill="#2B2440"/><circle cx="66" cy="125" r="7" fill="#FFB627"/><circle cx="90" cy="125" r="7" fill="#FFB627"/><circle cx="114" cy="125" r="7" fill="#FFB627"/><circle cx="138" cy="125" r="7" fill="#FFB627"/>
</svg>
