<svg xmlns="http://www.w3.org/2000/svg" viewBox="0 0 240 160">
<path d="M20 132 Q35 122 50 132 T80 132 T110 132 T140 132 T170 132 T200 132 T230 132 L230 156 L20 156 Z" fill="#9ECBF2"/><path d="M20 132 Q35 122 50 132 T80 132 T110 132 T140 132 T170 132 T200 132 T230 132" fill="none" stroke="#2F6BAE" stroke-width="3" stroke-linecap="round"/><path d="M34 104 L206 104 Q196 138 160 138 L80 138 Q44 138 34 104 Z" fill="#2E8B6A"/><rect x="58" y="72" width="124" height="34" rx="8" fill="#FFF4E0"/><rect x="68" y="80" width="16" height="14" rx="4" fill="#4A8FD8"/><rect x="92" y="80" width="16" height="14" rx="4" fill="#4A8FD8"/><rect x="116" y="80" width="16" height="14" rx="4" fill="#4A8FD8"/><rect x="140" y="80" width="16" height="14" rx="4" fill="#4A8FD8"/><rect x="158" y="80" width="16" height="14" rx="4" fill="#4A8FD8"/><rect x="86" y="50" width="68" height="24" rx="6" fill="#1F6B50"/><rect x="94" y="56" width="12" height="11" rx="3" fill="#DFEEFB"/><rect x="114" y="56" width="12" height="11" rx="3" fill="#DFEEFB"/><rect x="132" y="56" width="12" height="11" rx="3" fill="#DFEEFB"/><rect x="148" y="36" width="8" height="16" rx="3" fill="#FF6B4A"/>
</svg>
