<svg xmlns="http://www.w3.org/2000/svg" viewBox="0 0 240 160">
<ellipse cx="120" cy="146" rx="85" ry="7" fill="#1A1530" opacity="0.08"/><rect x="60" y="48" width="130" height="10" rx="5" fill="#FFFCF5"/><path d="M186 52 L206 44 L206 60 Z" fill="#FFB627"/><rect x="40" y="44" width="16" height="9" rx="3" fill="#FF6B4A"/><rect x="56" y="44" width="16" height="9" rx="3" fill="#4A8FD8"/><path d="M30 64 Q30 54 42 54 L66 54 Q78 54 78 66 L78 128 L30 128 Z" fill="#FF6B4A"/><rect x="38" y="64" width="26" height="20" rx="6" fill="#DFEEFB"/><rect x="78" y="62" width="132" height="66" rx="10" fill="#FF6B4A"/><rect x="78" y="98" width="132" height="9" fill="#FFFCF5"/><rect x="92" y="70" width="22" height="22" rx="5" fill="#FFB627"/><rect x="126" y="70" width="22" height="22" rx="5" fill="#FFB627"/><circle cx="60" cy="130" r="15" fill="#2B2440"/><circle cx="60" cy="130" r="7" fill="#FFB627"/><circle cx="132" cy="130" r="15" fill="#2B2440"/><circle cx="132" cy="130" r="7" fill="#FFB627"/><circle cx="184" cy="130" r="15" fill="#2B2440"/><circle cx="184" cy="130" r="7" fill="#FFB627"/>
</svg>
