<svg xmlns="http://www.w3.org/2000/svg" viewBox="0 0 240 160">
<ellipse cx="120" cy="146" rx="85" ry="7" fill="#1A1530" opacity="0.08"/><path d="M88 64 Q88 54 100 54 L176 54 Q196 58 200 86 L200 118 Q200 128 190 128 L88 128 Z" fill="#2E8B6A"/><path d="M88 64 L200 92 L200 86 Q196 58 176 54 L100 54 Q88 54 88 64 Z" fill="#1F6B50"/><path d="M30 84 L66 84 Q82 86 84 104 L84 118 Q84 128 74 128 L30 128 Z" fill="#FFB627"/><rect x="38" y="92" width="20" height="16" rx="5" fill="#DFEEFB"/><rect x="78" y="98" width="14" height="20" rx="4" fill="#1F6B50"/><circle cx="56" cy="130" r="14" fill="#2B2440"/><circle cx="56" cy="130" r="6" fill="#FFB627"/><circle cx="120" cy="130" r="14" fill="#2B2440"/><circle cx="120" cy="130" r="6" fill="#FFB627"/><circle cx="172" cy="130" r="14" fill="#2B2440"/><circle cx="172" cy="130" r="6" fill="#FFB627"/>
</svg>
