<svg xmlns="http://www.w3.org/2000/svg" viewBox="0 0 240 160">
<ellipse cx="120" cy="150" rx="70" ry="5" fill="#1A1530" opacity="0.07"/><rect x="116" y="28" width="8" height="16" rx="4" fill="#2B2440"/><rect x="36" y="22" width="168" height="9" rx="4.5" fill="#2B2440"/><path d="M70 86 Q70 52 110 50 L132 50 Q166 52 166 84 Q166 112 132 112 L102 112 Q70 110 70 86 Z" fill="#FF6B4A"/><path d="M160 76 L204 70 Q214 70 214 80 Q214 90 204 88 L160 94 Z" fill="#C84F3E"/><rect x="196" y="52" width="6" height="26" rx="3" fill="#2B2440"/><path d="M86 60 Q90 56 104 56 L126 56 Q140 58 142 74 L86 74 Z" fill="#DFEEFB"/><path d="M92 112 L88 128 L148 128 L138 112" fill="none" stroke="#2B2440" stroke-width="6" stroke-linecap="round"/><rect x="78" y="124" width="84" height="7" rx="3.5" fill="#2B2440"/>
</svg>
