<svg xmlns="http://www.w3.org/2000/svg" viewBox="0 0 240 160">
<ellipse cx="120" cy="152" rx="40" ry="5" fill="#1A1530" opacity="0.07"/><path d="M120 10 Q172 14 172 64 Q172 94 138 112 L102 112 Q68 94 68 64 Q68 14 120 10 Z" fill="#FF6B4A"/><path d="M104 11 Q88 30 88 64 Q88 96 104 111 L120 112 Q104 94 104 64 Q104 28 120 10 Z" fill="#FFB627"/><path d="M136 11 Q152 30 152 64 Q152 96 136 111 L120 112 Q136 94 136 64 Q136 28 120 10 Z" fill="#4A8FD8"/><path d="M102 112 L108 126 L132 126 L138 112" fill="none" stroke="#2B2440" stroke-width="4"/><rect x="104" y="124" width="32" height="22" rx="6" fill="#D89414"/><rect x="104" y="124" width="32" height="7" fill="#B27607"/>
</svg>
