<svg xmlns="http://www.w3.org/2000/svg" viewBox="0 0 240 160">
<ellipse cx="120" cy="146" rx="85" ry="7" fill="#1A1530" opacity="0.08"/><rect x="22" y="134" width="200" height="6" rx="3" fill="#2B2440"/><path d="M34 58 Q34 46 48 46 L176 46 Q210 50 216 92 L216 112 Q216 124 204 124 L34 124 Z" fill="#4A8FD8"/><path d="M34 100 L216 100 L216 112 Q216 124 204 124 L34 124 Z" fill="#2F6BAE"/><rect x="46" y="58" width="28" height="24" rx="7" fill="#DFEEFB"/><rect x="84" y="58" width="28" height="24" rx="7" fill="#DFEEFB"/><rect x="122" y="58" width="28" height="24" rx="7" fill="#DFEEFB"/><path d="M162 58 L172 58 Q196 62 202 92 L162 92 Z" fill="#DFEEFB"/><circle cx="206" cy="108" r="5" fill="#FFB627"/><circle cx="70" cy="130" r="11" fill="#2B2440"/><circle cx="70" cy="130" r="5" fill="#FFB627"/><circle cx="180" cy="130" r="11" fill="#2B2440"/><circle cx="180" cy="130" r="5" fill="#FFB627"/>
</svg>
