<svg xmlns="http://www.w3.org/2000/svg" viewBox="0 0 240 160">
<ellipse cx="120" cy="146" rx="85" ry="7" fill="#1A1530" opacity="0.08"/><rect x="104" y="46" width="16" height="9" rx="3" fill="#FF6B4A"/><rect x="120" y="46" width="16" height="9" rx="3" fill="#4A8FD8"/><path d="M58 100 Q61 76 88 72 L142 72 Q166 74 180 98 L184 100 Z" fill="#4A8FD8"/><rect x="40" y="98" width="160" height="32" rx="14" fill="#4A8FD8"/><path d="M90 78 L134 78 Q146 80 153 95 L90 95 Z" fill="#DFEEFB"/><rect x="116" y="78" width="5" height="17" fill="#4A8FD8"/><rect x="40" y="104" width="160" height="10" fill="#FFFCF5"/><circle cx="120" cy="109" r="7" fill="#FFB627"/><circle cx="192" cy="112" r="5" fill="#FFF4E0"/><circle cx="80" cy="130" r="15" fill="#2B2440"/><circle cx="80" cy="130" r="7" fill="#FFB627"/><circle cx="162" cy="130" r="15" fill="#2B2440"/><circle cx="162" cy="130" r="7" fill="#FFB627"/>
</svg>
