<svg xmlns="http://www.w3.org/2000/svg" viewBox="0 0 240 160">
<path d="M20 132 Q35 122 50 132 T80 132 T110 132 T140 132 T170 132 T200 132 T230 132 L230 156 L20 156 Z" fill="#9ECBF2"/><path d="M20 132 Q35 122 50 132 T80 132 T110 132 T140 132 T170 132 T200 132 T230 132" fill="none" stroke="#2F6BAE" stroke-width="3" stroke-linecap="round"/><path d="M54 112 L186 112 Q176 140 148 140 L92 140 Q64 140 54 112 Z" fill="#2E8B6A"/><rect x="116" y="20" width="6" height="94" rx="3" fill="#2B2440"/><path d="M112 28 Q66 76 108 106 L112 106 Z" fill="#FF6B4A"/><path d="M126 24 Q176 72 130 106 L126 106 Z" fill="#FFF4E0"/><path d="M119 14 L142 22 L119 30 Z" fill="#FFB627"/>
</svg>
