<svg xmlns="http://www.w3.org/2000/svg" viewBox="0 0 240 160">
<ellipse cx="120" cy="146" rx="85" ry="7" fill="#1A1530" opacity="0.08"/><rect x="26" y="56" width="162" height="72" rx="13" fill="#FFB627"/><path d="M188 84 L206 84 Q216 86 216 100 L216 118 Q216 128 206 128 L188 128 Z" fill="#FFB627"/><rect x="26" y="98" width="190" height="9" fill="#D89414"/><rect x="40" y="68" width="24" height="20" rx="6" fill="#DFEEFB"/><rect x="72" y="68" width="24" height="20" rx="6" fill="#DFEEFB"/><rect x="104" y="68" width="24" height="20" rx="6" fill="#DFEEFB"/><rect x="136" y="68" width="24" height="20" rx="6" fill="#DFEEFB"/><rect x="192" y="90" width="18" height="14" rx="4" fill="#DFEEFB"/><circle cx="213" cy="112" r="4" fill="#FF6B4A"/><circle cx="66" cy="130" r="15" fill="#2B2440"/><circle cx="66" cy="130" r="7" fill="#FFB627"/><circle cx="168" cy="130" r="15" fill="#2B2440"/><circle cx="168" cy="130" r="7" fill="#FFB627"/>
</svg>
