<svg xmlns="http://www.w3.org/2000/svg" viewBox="0 0 240 160">
<path d="M20 132 Q35 122 50 132 T80 132 T110 132 T140 132 T170 132 T200 132 T230 132 L230 156 L20 156 Z" fill="#9ECBF2"/><path d="M20 132 Q35 122 50 132 T80 132 T110 132 T140 132 T170 132 T200 132 T230 132" fill="none" stroke="#2F6BAE" stroke-width="3" stroke-linecap="round"/><path d="M30 100 L210 100 Q198 140 162 140 L78 140 Q42 140 30 100 Z" fill="#4A8FD8"/><path d="M30 100 L210 100 L205 112 L35 112 Z" fill="#2F6BAE"/><rect x="74" y="70" width="92" height="32" rx="6" fill="#FFF4E0"/><circle cx="90" cy="86" r="6" fill="#4A8FD8"/><circle cx="112" cy="86" r="6" fill="#4A8FD8"/><circle cx="134" cy="86" r="6" fill="#4A8FD8"/><circle cx="152" cy="86" r="6" fill="#4A8FD8"/><rect x="104" y="42" width="20" height="30" rx="5" fill="#FF6B4A"/><rect x="104" y="42" width="20" height="9" rx="4.5" fill="#2B2440"/><circle cx="128" cy="34" r="5" fill="#DFEEFB"/><circle cx="138" cy="24" r="7" fill="#DFEEFB"/>
</svg>
