<svg xmlns="http://www.w3.org/2000/svg" viewBox="0 0 240 160">
<rect x="0" y="0" width="240" height="160" fill="#9ECBF2" rx="24"/><circle cx="196" cy="40" r="7" fill="#FFFCF5" opacity="0.5"/><circle cx="208" cy="26" r="5" fill="#FFFCF5" opacity="0.5"/><circle cx="186" cy="56" r="4" fill="#FFFCF5" opacity="0.5"/><circle cx="40" cy="36" r="6" fill="#FFFCF5" opacity="0.5"/><circle cx="52" cy="22" r="4" fill="#FFFCF5" opacity="0.5"/><rect x="106" y="34" width="7" height="26" fill="#D89414"/><path d="M106 34 L106 26 L122 26 L122 34 Z" fill="#D89414"/><path d="M86 58 Q98 48 122 48 L130 48 Q150 48 158 58 L130 58 Z" fill="#D89414"/><ellipse cx="120" cy="92" rx="78" ry="36" fill="#FFB627"/><path d="M44 84 L28 70 L28 114 L44 100 Z" fill="#D89414"/><circle cx="92" cy="90" r="9" fill="#DFEEFB" stroke="#D89414" stroke-width="3"/><circle cx="122" cy="90" r="9" fill="#DFEEFB" stroke="#D89414" stroke-width="3"/><circle cx="152" cy="90" r="9" fill="#DFEEFB" stroke="#D89414" stroke-width="3"/>
</svg>
