<svg xmlns="http://www.w3.org/2000/svg" viewBox="0 0 240 160">
<ellipse cx="120" cy="146" rx="85" ry="7" fill="#1A1530" opacity="0.08"/><rect x="104" y="50" width="32" height="14" rx="5" fill="#2B2440"/><text x="120" y="61" font-family="sans-serif" font-size="9" font-weight="bold" fill="#FFB627" text-anchor="middle">TAXI</text><path d="M58 100 Q61 76 88 72 L142 72 Q166 74 180 98 L184 100 Z" fill="#FFB627"/><rect x="40" y="98" width="160" height="32" rx="14" fill="#FFB627"/><path d="M90 78 L134 78 Q146 80 153 95 L90 95 Z" fill="#DFEEFB"/><rect x="116" y="78" width="5" height="17" fill="#FFB627"/><rect x="40" y="104" width="8" height="8" fill="#2B2440"/><rect x="56" y="104" width="8" height="8" fill="#FFFCF5"/><rect x="72" y="104" width="8" height="8" fill="#2B2440"/><rect x="88" y="104" width="8" height="8" fill="#FFFCF5"/><rect x="104" y="104" width="8" height="8" fill="#2B2440"/><rect x="120" y="104" width="8" height="8" fill="#FFFCF5"/><rect x="136" y="104" width="8" height="8" fill="#2B2440"/><rect x="152" y="104" width="8" height="8" fill="#FFFCF5"/><rect x="168" y="104" width="8" height="8" fill="#2B2440"/><rect x="184" y="104" width="8" height="8" fill="#FFFCF5"/><circle cx="192" cy="112" r="5" fill="#FFF4E0"/><circle cx="80" cy="130" r="15" fill="#2B2440"/><circle cx="80" cy="130" r="7" fill="#FFB627"/><circle cx="162" cy="130" r="15" fill="#2B2440"/><circle cx="162" cy="130" r="7" fill="#FFB627"/>
</svg>
