<svg xmlns="http://www.w3.org/2000/svg" viewBox="0 0 240 160">
<ellipse cx="120" cy="146" rx="85" ry="7" fill="#1A1530" opacity="0.08"/><rect x="22" y="118" width="200" height="7" rx="3.5" fill="#2B2440"/><rect x="30" y="46" width="74" height="74" rx="12" fill="#7A4FBF"/><rect x="40" y="56" width="54" height="26" rx="7" fill="#DFEEFB"/><rect x="104" y="68" width="74" height="52" rx="10" fill="#9B6FE0"/><rect x="148" y="44" width="16" height="28" rx="5" fill="#5B3A94"/><circle cx="156" cy="38" r="8" fill="#DFEEFB"/><path d="M178 84 L206 84 Q216 88 216 102 L216 110 Q216 120 206 120 L178 120 Z" fill="#7A4FBF"/><path d="M206 120 L224 134 L196 134 Z" fill="#FFB627"/><circle cx="210" cy="98" r="6" fill="#FFF4E0"/><circle cx="56" cy="130" r="13" fill="#2B2440"/><circle cx="56" cy="130" r="6" fill="#FFB627"/><circle cx="92" cy="130" r="13" fill="#2B2440"/><circle cx="92" cy="130" r="6" fill="#FFB627"/><circle cx="132" cy="130" r="13" fill="#2B2440"/><circle cx="132" cy="130" r="6" fill="#FFB627"/><circle cx="170" cy="130" r="13" fill="#2B2440"/><circle cx="170" cy="130" r="6" fill="#FFB627"/>
</svg>
