<svg xmlns="http://www.w3.org/2000/svg" viewBox="0 0 240 160">
<ellipse cx="120" cy="146" rx="85" ry="7" fill="#1A1530" opacity="0.08"/><rect x="22" y="136" width="200" height="5" rx="2.5" fill="#2B2440"/><line x1="30" y1="22" x2="210" y2="22" stroke="#2B2440" stroke-width="4" stroke-linecap="round"/><path d="M118 24 L138 50" stroke="#2B2440" stroke-width="5" stroke-linecap="round"/><path d="M158 24 L138 50" stroke="#2B2440" stroke-width="5" stroke-linecap="round"/><rect x="40" y="50" width="160" height="74" rx="14" fill="#2E8B6A"/><rect x="40" y="96" width="160" height="10" fill="#1F6B50"/><rect x="52" y="62" width="24" height="24" rx="6" fill="#DFEEFB"/><rect x="84" y="62" width="24" height="24" rx="6" fill="#DFEEFB"/><rect x="116" y="62" width="24" height="24" rx="6" fill="#DFEEFB"/><rect x="148" y="62" width="24" height="24" rx="6" fill="#DFEEFB"/><circle cx="50" cy="116" r="4" fill="#FFB627"/><circle cx="190" cy="116" r="4" fill="#FFB627"/><circle cx="80" cy="130" r="11" fill="#2B2440"/><circle cx="80" cy="130" r="5" fill="#FFB627"/><circle cx="160" cy="130" r="11" fill="#2B2440"/><circle cx="160" cy="130" r="5" fill="#FFB627"/>
</svg>
