<svg xmlns="http://www.w3.org/2000/svg" viewBox="0 0 240 160">
<ellipse cx="120" cy="146" rx="85" ry="7" fill="#1A1530" opacity="0.08"/><path d="M34 128 L34 78 Q34 62 52 62 L150 62 Q172 64 188 90 L196 102 Q200 108 200 116 L200 128 Z" fill="#2E8B6A"/><rect x="48" y="72" width="30" height="24" rx="6" fill="#DFEEFB"/><rect x="88" y="72" width="30" height="24" rx="6" fill="#DFEEFB"/><path d="M152 72 L156 72 Q170 76 180 94 L152 94 Z" fill="#DFEEFB"/><rect x="34" y="106" width="166" height="7" fill="#1F6B50"/><circle cx="193" cy="118" r="5" fill="#FFF4E0"/><circle cx="74" cy="130" r="15" fill="#2B2440"/><circle cx="74" cy="130" r="7" fill="#FFB627"/><circle cx="166" cy="130" r="15" fill="#2B2440"/><circle cx="166" cy="130" r="7" fill="#FFB627"/>
</svg>
